# xmcd
#
# Track frame offsets: 
#        150
#        19874
#        39164
#        59247
#        75107
#        94104
#        113441
#        135759
#        158619
#        181336
#
# Disc length: 2699 seconds
#
# Revision: 0
# Processed by: cddbd v1.5.2PL0 Copyright (c) Steve Scherf et al.
# Submitted via: ExactAudioCopyFreeDBPlugin 1.0
#
DISCID=660a890a
DTITLE=Sister Mercy - Head Over Heels
DYEAR=2014
DGENRE=Blues
TTITLE0=My Mind's Made Up
TTITLE1=Upside Down Inside Out
TTITLE2=Syrup and Honey
TTITLE3=Nobody's Fault but Mine
TTITLE4=The Way
TTITLE5=Holding on to Love
TTITLE6=Come to Me
TTITLE7=Sister Mercy
TTITLE8=Heavy Load
TTITLE9=I'm Done
EXTD=
EXTT0=
EXTT1=
EXTT2=
EXTT3=
EXTT4=
EXTT5=
EXTT6=
EXTT7=
EXTT8=
EXTT9=
PLAYORDER=
